<mxfile host="app.diagrams.net" modified="2021-01-10T19:46:49.120Z" agent="5.0 (Windows NT 10.0; Win64; x64) AppleWebKit/537.36 (KHTML, like Gecko) Chrome/87.0.4280.141 Safari/537.36" etag="gWajO7FxYDIMXRhKQc2V" version="14.1.9" type="github">
  <diagram id="QhE_rBIwDYQRnsvsMwHe" name="Page-1">
    <mxGraphModel dx="1240" dy="643" grid="1" gridSize="10" guides="1" tooltips="1" connect="1" arrows="1" fold="1" page="1" pageScale="1" pageWidth="3300" pageHeight="4681" math="0" shadow="0">
      <root>
        <mxCell id="0" />
        <mxCell id="1" parent="0" />
        <mxCell id="ZL6mE7A0bpfiMnblm8iK-1" value="COMPOSIZIONE" style="rounded=0;whiteSpace=wrap;html=1;" parent="1" vertex="1">
          <mxGeometry x="1450" y="2770" width="120" height="60" as="geometry" />
        </mxCell>
        <mxCell id="ZL6mE7A0bpfiMnblm8iK-3" value="DISCO" style="rounded=0;whiteSpace=wrap;html=1;" parent="1" vertex="1">
          <mxGeometry x="1615" y="2341" width="120" height="60" as="geometry" />
        </mxCell>
        <mxCell id="ZL6mE7A0bpfiMnblm8iK-4" value="PERSONA" style="rounded=0;whiteSpace=wrap;html=1;" parent="1" vertex="1">
          <mxGeometry x="1810" y="2770" width="120" height="60" as="geometry" />
        </mxCell>
        <mxCell id="ZL6mE7A0bpfiMnblm8iK-6" value="ED.MUSICALE" style="rounded=0;whiteSpace=wrap;html=1;" parent="1" vertex="1">
          <mxGeometry x="1620" y="2560" width="120" height="60" as="geometry" />
        </mxCell>
        <mxCell id="ZL6mE7A0bpfiMnblm8iK-10" value="PUBBL." style="rhombus;whiteSpace=wrap;html=1;" parent="1" vertex="1">
          <mxGeometry x="1640" y="2440" width="80" height="80" as="geometry" />
        </mxCell>
        <mxCell id="ZL6mE7A0bpfiMnblm8iK-11" value="COMPOSIT." style="rhombus;whiteSpace=wrap;html=1;" parent="1" vertex="1">
          <mxGeometry x="1640" y="2760" width="80" height="80" as="geometry" />
        </mxCell>
        <mxCell id="ZL6mE7A0bpfiMnblm8iK-14" value="" style="endArrow=none;html=1;entryX=0.5;entryY=1;entryDx=0;entryDy=0;" parent="1" source="hlcmgiIU_Dj04K1eBPdY-2" target="ZL6mE7A0bpfiMnblm8iK-6" edge="1">
          <mxGeometry width="50" height="50" relative="1" as="geometry">
            <mxPoint x="1840" y="2710" as="sourcePoint" />
            <mxPoint x="1890" y="2660" as="targetPoint" />
          </mxGeometry>
        </mxCell>
        <mxCell id="ZL6mE7A0bpfiMnblm8iK-15" value="" style="endArrow=none;html=1;entryX=0.5;entryY=1;entryDx=0;entryDy=0;exitX=0.5;exitY=0;exitDx=0;exitDy=0;" parent="1" source="ZL6mE7A0bpfiMnblm8iK-6" target="ZL6mE7A0bpfiMnblm8iK-10" edge="1">
          <mxGeometry width="50" height="50" relative="1" as="geometry">
            <mxPoint x="1840" y="2710" as="sourcePoint" />
            <mxPoint x="1890" y="2660" as="targetPoint" />
          </mxGeometry>
        </mxCell>
        <mxCell id="ZL6mE7A0bpfiMnblm8iK-16" value="" style="endArrow=none;html=1;entryX=0.5;entryY=1;entryDx=0;entryDy=0;exitX=0.5;exitY=0;exitDx=0;exitDy=0;" parent="1" source="ZL6mE7A0bpfiMnblm8iK-10" target="ZL6mE7A0bpfiMnblm8iK-3" edge="1">
          <mxGeometry width="50" height="50" relative="1" as="geometry">
            <mxPoint x="1840" y="2710" as="sourcePoint" />
            <mxPoint x="1890" y="2660" as="targetPoint" />
          </mxGeometry>
        </mxCell>
        <mxCell id="ZL6mE7A0bpfiMnblm8iK-18" value="" style="endArrow=none;html=1;entryX=0;entryY=0.5;entryDx=0;entryDy=0;exitX=1;exitY=0.5;exitDx=0;exitDy=0;" parent="1" source="ZL6mE7A0bpfiMnblm8iK-11" target="ZL6mE7A0bpfiMnblm8iK-4" edge="1">
          <mxGeometry width="50" height="50" relative="1" as="geometry">
            <mxPoint x="2050" y="2800" as="sourcePoint" />
            <mxPoint x="1890" y="2660" as="targetPoint" />
          </mxGeometry>
        </mxCell>
        <mxCell id="ZL6mE7A0bpfiMnblm8iK-20" value="DATARE" style="ellipse;whiteSpace=wrap;html=1;" parent="1" vertex="1">
          <mxGeometry x="1480" y="2281" width="90" height="60" as="geometry" />
        </mxCell>
        <mxCell id="ZL6mE7A0bpfiMnblm8iK-21" value="ANNOMORT" style="ellipse;whiteSpace=wrap;html=1;" parent="1" vertex="1">
          <mxGeometry x="2020" y="2790" width="90" height="60" as="geometry" />
        </mxCell>
        <mxCell id="ZL6mE7A0bpfiMnblm8iK-22" value="ANNONASC" style="ellipse;whiteSpace=wrap;html=1;" parent="1" vertex="1">
          <mxGeometry x="2020" y="2720" width="90" height="60" as="geometry" />
        </mxCell>
        <mxCell id="ZL6mE7A0bpfiMnblm8iK-23" value="&lt;u&gt;COD.PERS&lt;/u&gt;" style="ellipse;whiteSpace=wrap;html=1;" parent="1" vertex="1">
          <mxGeometry x="2020" y="2640" width="90" height="60" as="geometry" />
        </mxCell>
        <mxCell id="ZL6mE7A0bpfiMnblm8iK-24" value="COGNOME" style="ellipse;whiteSpace=wrap;html=1;" parent="1" vertex="1">
          <mxGeometry x="2020" y="2930" width="90" height="60" as="geometry" />
        </mxCell>
        <mxCell id="ZL6mE7A0bpfiMnblm8iK-25" value="" style="endArrow=none;html=1;entryX=0;entryY=0.5;entryDx=0;entryDy=0;exitX=1;exitY=0.5;exitDx=0;exitDy=0;" parent="1" source="ZL6mE7A0bpfiMnblm8iK-4" target="ZL6mE7A0bpfiMnblm8iK-21" edge="1">
          <mxGeometry width="50" height="50" relative="1" as="geometry">
            <mxPoint x="1840" y="2800" as="sourcePoint" />
            <mxPoint x="1890" y="2750" as="targetPoint" />
          </mxGeometry>
        </mxCell>
        <mxCell id="ZL6mE7A0bpfiMnblm8iK-26" value="" style="endArrow=none;html=1;entryX=0;entryY=0.5;entryDx=0;entryDy=0;exitX=1;exitY=0;exitDx=0;exitDy=0;" parent="1" source="ZL6mE7A0bpfiMnblm8iK-4" target="ZL6mE7A0bpfiMnblm8iK-22" edge="1">
          <mxGeometry width="50" height="50" relative="1" as="geometry">
            <mxPoint x="1840" y="2800" as="sourcePoint" />
            <mxPoint x="1890" y="2750" as="targetPoint" />
          </mxGeometry>
        </mxCell>
        <mxCell id="ZL6mE7A0bpfiMnblm8iK-27" value="" style="endArrow=none;html=1;entryX=0;entryY=1;entryDx=0;entryDy=0;exitX=0.75;exitY=0;exitDx=0;exitDy=0;" parent="1" source="ZL6mE7A0bpfiMnblm8iK-4" target="ZL6mE7A0bpfiMnblm8iK-23" edge="1">
          <mxGeometry width="50" height="50" relative="1" as="geometry">
            <mxPoint x="1840" y="2800" as="sourcePoint" />
            <mxPoint x="1890" y="2750" as="targetPoint" />
          </mxGeometry>
        </mxCell>
        <mxCell id="ZL6mE7A0bpfiMnblm8iK-28" value="" style="endArrow=none;html=1;entryX=0;entryY=0.5;entryDx=0;entryDy=0;exitX=1;exitY=1;exitDx=0;exitDy=0;" parent="1" source="ZL6mE7A0bpfiMnblm8iK-4" target="ZL6mE7A0bpfiMnblm8iK-19" edge="1">
          <mxGeometry width="50" height="50" relative="1" as="geometry">
            <mxPoint x="1840" y="2800" as="sourcePoint" />
            <mxPoint x="1890" y="2750" as="targetPoint" />
          </mxGeometry>
        </mxCell>
        <mxCell id="ZL6mE7A0bpfiMnblm8iK-30" value="&lt;u&gt;CODICE.EDIZ&lt;/u&gt;" style="ellipse;whiteSpace=wrap;html=1;" parent="1" vertex="1">
          <mxGeometry x="1780" y="2480" width="90" height="60" as="geometry" />
        </mxCell>
        <mxCell id="ZL6mE7A0bpfiMnblm8iK-31" value="TITOLO" style="ellipse;whiteSpace=wrap;html=1;" parent="1" vertex="1">
          <mxGeometry x="1320" y="2750" width="90" height="60" as="geometry" />
        </mxCell>
        <mxCell id="ZL6mE7A0bpfiMnblm8iK-32" value="GENERE" style="ellipse;whiteSpace=wrap;html=1;" parent="1" vertex="1">
          <mxGeometry x="1320" y="2830" width="90" height="60" as="geometry" />
        </mxCell>
        <mxCell id="ZL6mE7A0bpfiMnblm8iK-34" value="POS.LISTA.C" style="ellipse;whiteSpace=wrap;html=1;" parent="1" vertex="1">
          <mxGeometry x="1635" y="2890" width="90" height="60" as="geometry" />
        </mxCell>
        <mxCell id="ZL6mE7A0bpfiMnblm8iK-35" value="" style="endArrow=none;html=1;exitX=0.5;exitY=0;exitDx=0;exitDy=0;" parent="1" source="ZL6mE7A0bpfiMnblm8iK-34" edge="1">
          <mxGeometry width="50" height="50" relative="1" as="geometry">
            <mxPoint x="1840" y="2800" as="sourcePoint" />
            <mxPoint x="1680" y="2840" as="targetPoint" />
          </mxGeometry>
        </mxCell>
        <mxCell id="ZL6mE7A0bpfiMnblm8iK-37" value="ANNO PUBBL" style="ellipse;whiteSpace=wrap;html=1;" parent="1" vertex="1">
          <mxGeometry x="1320" y="2910" width="90" height="60" as="geometry" />
        </mxCell>
        <mxCell id="ZL6mE7A0bpfiMnblm8iK-38" value="&lt;u&gt;COD.COMP&lt;/u&gt;" style="ellipse;whiteSpace=wrap;html=1;" parent="1" vertex="1">
          <mxGeometry x="1320" y="2670" width="90" height="60" as="geometry" />
        </mxCell>
        <mxCell id="ZL6mE7A0bpfiMnblm8iK-39" value="" style="endArrow=none;html=1;exitX=1;exitY=0.5;exitDx=0;exitDy=0;entryX=0.25;entryY=0;entryDx=0;entryDy=0;" parent="1" source="ZL6mE7A0bpfiMnblm8iK-38" target="ZL6mE7A0bpfiMnblm8iK-1" edge="1">
          <mxGeometry width="50" height="50" relative="1" as="geometry">
            <mxPoint x="1840" y="2800" as="sourcePoint" />
            <mxPoint x="1890" y="2750" as="targetPoint" />
          </mxGeometry>
        </mxCell>
        <mxCell id="ZL6mE7A0bpfiMnblm8iK-40" value="" style="endArrow=none;html=1;exitX=1;exitY=0.5;exitDx=0;exitDy=0;entryX=0;entryY=0.25;entryDx=0;entryDy=0;" parent="1" source="ZL6mE7A0bpfiMnblm8iK-31" target="ZL6mE7A0bpfiMnblm8iK-1" edge="1">
          <mxGeometry width="50" height="50" relative="1" as="geometry">
            <mxPoint x="1840" y="2800" as="sourcePoint" />
            <mxPoint x="1890" y="2750" as="targetPoint" />
          </mxGeometry>
        </mxCell>
        <mxCell id="ZL6mE7A0bpfiMnblm8iK-41" value="" style="endArrow=none;html=1;exitX=1;exitY=0;exitDx=0;exitDy=0;entryX=0;entryY=0.833;entryDx=0;entryDy=0;entryPerimeter=0;" parent="1" source="ZL6mE7A0bpfiMnblm8iK-32" target="ZL6mE7A0bpfiMnblm8iK-1" edge="1">
          <mxGeometry width="50" height="50" relative="1" as="geometry">
            <mxPoint x="1840" y="2800" as="sourcePoint" />
            <mxPoint x="1890" y="2750" as="targetPoint" />
          </mxGeometry>
        </mxCell>
        <mxCell id="ZL6mE7A0bpfiMnblm8iK-42" value="" style="endArrow=none;html=1;exitX=1;exitY=0.5;exitDx=0;exitDy=0;entryX=0.25;entryY=1;entryDx=0;entryDy=0;" parent="1" source="ZL6mE7A0bpfiMnblm8iK-37" target="ZL6mE7A0bpfiMnblm8iK-1" edge="1">
          <mxGeometry width="50" height="50" relative="1" as="geometry">
            <mxPoint x="1840" y="2800" as="sourcePoint" />
            <mxPoint x="1890" y="2750" as="targetPoint" />
          </mxGeometry>
        </mxCell>
        <mxCell id="ZL6mE7A0bpfiMnblm8iK-43" value="ANNO EDIZIONE" style="ellipse;whiteSpace=wrap;html=1;" parent="1" vertex="1">
          <mxGeometry x="1500" y="2470" width="90" height="60" as="geometry" />
        </mxCell>
        <mxCell id="ZL6mE7A0bpfiMnblm8iK-44" value="EDITORE" style="ellipse;whiteSpace=wrap;html=1;" parent="1" vertex="1">
          <mxGeometry x="1780" y="2560" width="90" height="60" as="geometry" />
        </mxCell>
        <mxCell id="ZL6mE7A0bpfiMnblm8iK-45" value="" style="endArrow=none;html=1;exitX=1;exitY=1;exitDx=0;exitDy=0;entryX=0;entryY=0.5;entryDx=0;entryDy=0;" parent="1" source="ZL6mE7A0bpfiMnblm8iK-6" target="ZL6mE7A0bpfiMnblm8iK-44" edge="1">
          <mxGeometry width="50" height="50" relative="1" as="geometry">
            <mxPoint x="1840" y="2790" as="sourcePoint" />
            <mxPoint x="1890" y="2740" as="targetPoint" />
          </mxGeometry>
        </mxCell>
        <mxCell id="ZL6mE7A0bpfiMnblm8iK-46" value="" style="endArrow=none;html=1;entryX=1;entryY=0;entryDx=0;entryDy=0;exitX=0;exitY=1;exitDx=0;exitDy=0;" parent="1" source="ZL6mE7A0bpfiMnblm8iK-30" target="ZL6mE7A0bpfiMnblm8iK-6" edge="1">
          <mxGeometry width="50" height="50" relative="1" as="geometry">
            <mxPoint x="1840" y="2790" as="sourcePoint" />
            <mxPoint x="1890" y="2740" as="targetPoint" />
          </mxGeometry>
        </mxCell>
        <mxCell id="ZL6mE7A0bpfiMnblm8iK-47" value="" style="endArrow=none;html=1;exitX=1;exitY=0.5;exitDx=0;exitDy=0;entryX=0;entryY=0;entryDx=0;entryDy=0;" parent="1" source="ZL6mE7A0bpfiMnblm8iK-43" target="ZL6mE7A0bpfiMnblm8iK-6" edge="1">
          <mxGeometry width="50" height="50" relative="1" as="geometry">
            <mxPoint x="1840" y="2790" as="sourcePoint" />
            <mxPoint x="1890" y="2740" as="targetPoint" />
          </mxGeometry>
        </mxCell>
        <mxCell id="ZL6mE7A0bpfiMnblm8iK-48" value="DATAPRE" style="ellipse;whiteSpace=wrap;html=1;" parent="1" vertex="1">
          <mxGeometry x="1800" y="2290" width="90" height="60" as="geometry" />
        </mxCell>
        <mxCell id="ZL6mE7A0bpfiMnblm8iK-49" value="&lt;u&gt;NUM.COPIA&lt;/u&gt;" style="ellipse;whiteSpace=wrap;html=1;" parent="1" vertex="1">
          <mxGeometry x="1630" y="2220" width="90" height="60" as="geometry" />
        </mxCell>
        <mxCell id="ZL6mE7A0bpfiMnblm8iK-50" value="" style="endArrow=none;html=1;entryX=0;entryY=1;entryDx=0;entryDy=0;exitX=1;exitY=0;exitDx=0;exitDy=0;" parent="1" source="ZL6mE7A0bpfiMnblm8iK-3" target="ZL6mE7A0bpfiMnblm8iK-48" edge="1">
          <mxGeometry width="50" height="50" relative="1" as="geometry">
            <mxPoint x="1840" y="2510" as="sourcePoint" />
            <mxPoint x="1890" y="2460" as="targetPoint" />
          </mxGeometry>
        </mxCell>
        <mxCell id="ZL6mE7A0bpfiMnblm8iK-51" value="" style="endArrow=none;html=1;entryX=0.5;entryY=1;entryDx=0;entryDy=0;exitX=0.5;exitY=0;exitDx=0;exitDy=0;" parent="1" source="ZL6mE7A0bpfiMnblm8iK-3" target="ZL6mE7A0bpfiMnblm8iK-49" edge="1">
          <mxGeometry width="50" height="50" relative="1" as="geometry">
            <mxPoint x="1840" y="2510" as="sourcePoint" />
            <mxPoint x="1890" y="2460" as="targetPoint" />
          </mxGeometry>
        </mxCell>
        <mxCell id="ZL6mE7A0bpfiMnblm8iK-52" value="" style="endArrow=none;html=1;entryX=1;entryY=1;entryDx=0;entryDy=0;exitX=0;exitY=0;exitDx=0;exitDy=0;" parent="1" source="ZL6mE7A0bpfiMnblm8iK-3" target="ZL6mE7A0bpfiMnblm8iK-20" edge="1">
          <mxGeometry width="50" height="50" relative="1" as="geometry">
            <mxPoint x="1840" y="2510" as="sourcePoint" />
            <mxPoint x="1890" y="2460" as="targetPoint" />
          </mxGeometry>
        </mxCell>
        <mxCell id="ZL6mE7A0bpfiMnblm8iK-53" value="(1,N)" style="text;html=1;strokeColor=none;fillColor=none;align=center;verticalAlign=middle;whiteSpace=wrap;rounded=0;" parent="1" vertex="1">
          <mxGeometry x="1750" y="2780" width="40" height="20" as="geometry" />
        </mxCell>
        <mxCell id="ZL6mE7A0bpfiMnblm8iK-60" value="" style="endArrow=none;html=1;exitX=1;exitY=0.5;exitDx=0;exitDy=0;entryX=0;entryY=0.5;entryDx=0;entryDy=0;" parent="1" source="ZL6mE7A0bpfiMnblm8iK-1" target="ZL6mE7A0bpfiMnblm8iK-11" edge="1">
          <mxGeometry width="50" height="50" relative="1" as="geometry">
            <mxPoint x="1840" y="2790" as="sourcePoint" />
            <mxPoint x="1890" y="2740" as="targetPoint" />
          </mxGeometry>
        </mxCell>
        <mxCell id="ZL6mE7A0bpfiMnblm8iK-61" value="(1,N)" style="text;html=1;strokeColor=none;fillColor=none;align=center;verticalAlign=middle;whiteSpace=wrap;rounded=0;" parent="1" vertex="1">
          <mxGeometry x="1590" y="2780" width="40" height="20" as="geometry" />
        </mxCell>
        <mxCell id="ZL6mE7A0bpfiMnblm8iK-62" value="(1,N)" style="text;html=1;strokeColor=none;fillColor=none;align=center;verticalAlign=middle;whiteSpace=wrap;rounded=0;" parent="1" vertex="1">
          <mxGeometry x="1550" y="2730" width="40" height="20" as="geometry" />
        </mxCell>
        <mxCell id="ZL6mE7A0bpfiMnblm8iK-63" value="(1,N)" style="text;html=1;strokeColor=none;fillColor=none;align=center;verticalAlign=middle;whiteSpace=wrap;rounded=0;" parent="1" vertex="1">
          <mxGeometry x="1610" y="2630" width="40" height="20" as="geometry" />
        </mxCell>
        <mxCell id="ZL6mE7A0bpfiMnblm8iK-64" value="(1,N)" style="text;html=1;strokeColor=none;fillColor=none;align=center;verticalAlign=middle;whiteSpace=wrap;rounded=0;" parent="1" vertex="1">
          <mxGeometry x="1685" y="2420" width="40" height="20" as="geometry" />
        </mxCell>
        <mxCell id="ZL6mE7A0bpfiMnblm8iK-65" value="(1,N)" style="text;html=1;strokeColor=none;fillColor=none;align=center;verticalAlign=middle;whiteSpace=wrap;rounded=0;" parent="1" vertex="1">
          <mxGeometry x="1680" y="2530" width="40" height="20" as="geometry" />
        </mxCell>
        <mxCell id="ZL6mE7A0bpfiMnblm8iK-19" value="NOME" style="ellipse;whiteSpace=wrap;html=1;" parent="1" vertex="1">
          <mxGeometry x="2020" y="2860" width="90" height="60" as="geometry" />
        </mxCell>
        <mxCell id="hlcmgiIU_Dj04K1eBPdY-1" value="" style="endArrow=none;html=1;entryX=0.016;entryY=0.307;entryDx=0;entryDy=0;exitX=0.75;exitY=1;exitDx=0;exitDy=0;entryPerimeter=0;" edge="1" parent="1" source="ZL6mE7A0bpfiMnblm8iK-4" target="ZL6mE7A0bpfiMnblm8iK-24">
          <mxGeometry width="50" height="50" relative="1" as="geometry">
            <mxPoint x="1900" y="2830" as="sourcePoint" />
            <mxPoint x="2260" y="2970" as="targetPoint" />
          </mxGeometry>
        </mxCell>
        <mxCell id="hlcmgiIU_Dj04K1eBPdY-2" value="OKOK" style="rhombus;whiteSpace=wrap;html=1;" vertex="1" parent="1">
          <mxGeometry x="1560" y="2650" width="80" height="80" as="geometry" />
        </mxCell>
        <mxCell id="hlcmgiIU_Dj04K1eBPdY-4" value="" style="endArrow=none;html=1;entryX=0.5;entryY=1;entryDx=0;entryDy=0;exitX=1;exitY=0;exitDx=0;exitDy=0;" edge="1" parent="1" source="ZL6mE7A0bpfiMnblm8iK-1" target="hlcmgiIU_Dj04K1eBPdY-2">
          <mxGeometry width="50" height="50" relative="1" as="geometry">
            <mxPoint x="1730" y="2810" as="sourcePoint" />
            <mxPoint x="1780" y="2760" as="targetPoint" />
          </mxGeometry>
        </mxCell>
      </root>
    </mxGraphModel>
  </diagram>
</mxfile>
